HIERARCHY
ROOT Hips
{
	OFFSET 0.000000 0.000000 0.000000
	CHANNELS 6 Xposition Yposition Zposition Xrotation Yrotation Zrotation
	JOINT LeftUpLeg_virtual
	{
		OFFSET 0.000000 0.000000 0.000000
		CHANNELS 3 Xrotation Yrotation Zrotation
		JOINT LeftUpLeg
		{
			OFFSET 10.205400 -3.823500 0.155100
			CHANNELS 3 Xrotation Yrotation Zrotation
			JOINT LeftLeg
			{
				OFFSET 0.708757 -12.982077 0.567790
				CHANNELS 3 Xrotation Yrotation Zrotation
				JOINT LeftFoot
				{
					OFFSET -0.708756 -10.717838 -2.184338
					CHANNELS 3 Xrotation Yrotation Zrotation
					JOINT LeftToeBase
					{
						OFFSET 0.108149 -7.191104 7.560241
						CHANNELS 3 Xrotation Yrotation Zrotation
						JOINT LeftToe_End
						{
							OFFSET 0.070230 0.081724 4.490308
							CHANNELS 3 Xrotation Yrotation Zrotation
							End Site
							{
								OFFSET 0 0 0
							}
						}
					}
				}
			}
		}
	}
	JOINT RightUpLeg_virtual
	{
		OFFSET 0.000000 0.000000 0.000000
		CHANNELS 3 Xrotation Yrotation Zrotation
		JOINT RightUpLeg
		{
			OFFSET -10.205400 -3.823500 0.005500
			CHANNELS 3 Xrotation Yrotation Zrotation
			JOINT RightLeg
			{
				OFFSET -0.708756 -12.982134 0.610632
				CHANNELS 3 Xrotation Yrotation Zrotation
				JOINT RightFoot
				{
					OFFSET 0.708754 -10.717769 -1.945823
					CHANNELS 3 Xrotation Yrotation Zrotation
					JOINT RightToeBase
					{
						OFFSET -0.108140 -7.191069 7.372968
						CHANNELS 3 Xrotation Yrotation Zrotation
						JOINT RightToe_End
						{
							OFFSET -0.070227 0.081735 4.479403
							CHANNELS 3 Xrotation Yrotation Zrotation
							End Site
							{
								OFFSET 0 0 0
							}
						}
					}
				}
			}
		}
	}
	JOINT Spine_virtual
	{
		OFFSET 0.000000 0.000000 0.000000
		CHANNELS 3 Xrotation Yrotation Zrotation
		JOINT Spine
		{
			OFFSET 0.000000 6.876099 0.125700
			CHANNELS 3 Xrotation Yrotation Zrotation
			JOINT Spine1
			{
				OFFSET 0.000000 5.730043 0.104720
				CHANNELS 3 Xrotation Yrotation Zrotation
				JOINT Spine1_split
				{
					OFFSET 0.000000 5.730043 0.104720
					CHANNELS 3 Xrotation Yrotation Zrotation
					JOINT Spine2
					{
						OFFSET 0.000000 5.730043 0.104720
						CHANNELS 3 Xrotation Yrotation Zrotation
						JOINT Neck_virtual
						{
							OFFSET 0.000000 0.000000 0.000000
							CHANNELS 3 Xrotation Yrotation Zrotation
							JOINT Neck
							{
								OFFSET 0.000000 10.314075 0.188496
								CHANNELS 3 Xrotation Yrotation Zrotation
								JOINT Head
								{
									OFFSET 0.000000 7.643700 -2.377400
									CHANNELS 3 Xrotation Yrotation Zrotation
									JOINT HeadTop_End
									{
										OFFSET 0.000000 43.788605 -13.619600
										CHANNELS 3 Xrotation Yrotation Zrotation
										End Site
										{
											OFFSET 0 0 0
										}
									}
								}
							}
						}
						JOINT LeftShoulder_virtual
						{
							OFFSET 0.000000 0.000000 0.000000
							CHANNELS 3 Xrotation Yrotation Zrotation
							JOINT LeftShoulder
							{
								OFFSET 2.196100 4.412489 0.087492
								CHANNELS 3 Xrotation Yrotation Zrotation
								JOINT LeftShoulder_split
								{
									OFFSET 2.196100 4.412489 0.087492
									CHANNELS 3 Xrotation Yrotation Zrotation
									JOINT LeftArm
									{
										OFFSET 8.771219 -2.981674 -0.026999
										CHANNELS 3 Xrotation Yrotation Zrotation
										JOINT LeftForeArm
										{
											OFFSET 8.512804 0.000000 -0.000000
											CHANNELS 3 Xrotation Yrotation Zrotation
											JOINT LeftHand
											{
												OFFSET 18.484802 0.000000 -0.000000
												CHANNELS 3 Xrotation Yrotation Zrotation
												End Site
												{
													OFFSET 0 0 0
												}
											}
										}
									}
								}
							}
						}
						JOINT RightShoulder_virtual
						{
							OFFSET 0.000000 0.000000 0.000000
							CHANNELS 3 Xrotation Yrotation Zrotation
							JOINT RightShoulder
							{
								OFFSET -2.196100 4.412496 0.070690
								CHANNELS 3 Xrotation Yrotation Zrotation
								JOINT RightShoulder_split
								{
									OFFSET -2.196100 4.412496 0.070690
									CHANNELS 3 Xrotation Yrotation Zrotation
									JOINT RightArm
									{
										OFFSET -8.771282 -2.981682 -0.094208
										CHANNELS 3 Xrotation Yrotation Zrotation
										JOINT RightForeArm
										{
											OFFSET -8.494598 0.000000 0.000000
											CHANNELS 3 Xrotation Yrotation Zrotation
											JOINT RightHand
											{
												OFFSET -18.483803 0.000000 0.000001
												CHANNELS 3 Xrotation Yrotation Zrotation
												End Site
												{
													OFFSET 0 0 0
												}
											}
										}
									}
								}
							}
						}
					}
				}
			}
		}
	}
}
MOTION
Frames: 9
Frame Time: 0.03333333
-0.149184 33.074001 0.119726 0.000000 0.000000 0.000000 -0.823536 -2.332966 1.179080 -8.634799 10.137514 14.572960 17.275997 -10.679891 -2.508044 -11.085756 -0.494024 -8.991184 1.070977 0.124288 -1.117113 0.000000 0.000000 0.000000 -0.250961 -1.264127 0.886481 -8.916581 -5.370263 -17.203522 19.962956 9.264146 4.399503 -8.031356 -4.310577 6.758308 0.390204 -0.257777 0.032284 0.000000 0.000000 0.000000 -1.566027 -2.779992 1.036198 2.640257 0.956916 0.728687 1.072492 0.666005 0.205739 1.448074 2.618546 -0.129877 0.000000 0.000000 0.000000 1.166669 0.559347 -0.112610 -0.364381 -0.501431 -2.534899 -4.732206 -10.612226 4.543918 0.000000 0.000000 0.000000 0.848139 0.395736 0.283668 0.688234 -1.170656 -10.705937 -0.285330 0.342812 -2.786146 9.049644 -18.127395 -59.088923 2.242559 -26.257976 1.170975 0.000000 0.000000 0.000000 0.583486 0.450755 0.104185 0.630990 4.034224 14.368654 -0.330050 0.903490 -0.252084 6.484197 4.215129 62.589770 -0.025649 30.717116 -0.314370 0.000000 0.000000 0.000000 
-0.159948 33.124050 0.141945 0.000000 0.000000 0.000000 -0.523329 -2.032522 1.224944 -8.818035 9.516294 14.123871 17.409584 -10.360576 -2.162444 -11.231999 -0.163290 -8.586708 0.826261 0.158209 -1.266900 0.000000 0.000000 0.000000 -0.074037 -1.468809 0.923249 -8.961932 -5.775486 -17.248058 18.963481 9.096571 4.201385 -7.641735 -4.063334 7.180954 -0.127621 -0.432536 0.136794 0.000000 0.000000 0.000000 -1.379651 -2.807420 0.920409 2.290048 0.914379 0.726070 1.095596 0.680305 0.312191 1.350445 2.858776 0.094970 0.000000 0.000000 0.000000 1.088177 0.601315 -0.036307 -0.170789 -0.465207 -2.548600 -4.850791 -10.578349 4.354308 0.000000 0.000000 0.000000 0.849629 0.457442 0.344470 0.675263 -0.890792 -10.776519 0.716042 -0.088433 -2.381122 8.746448 -18.298212 -58.732346 2.679476 -24.396848 1.140280 0.000000 0.000000 0.000000 0.571183 0.462277 0.084976 0.619843 4.175222 14.546097 0.228345 1.291314 0.141474 6.486881 3.168908 62.690208 0.162770 29.622711 -0.193453 0.000000 0.000000 0.000000 
-0.185775 33.196121 0.091908 0.000000 0.000000 0.000000 0.042061 -2.112332 1.239288 -9.395484 8.930431 13.772745 17.896682 -9.950796 -1.732395 -11.290241 0.394078 -8.497451 0.695810 0.203589 -1.255660 0.000000 0.000000 0.000000 0.326081 -1.748166 0.936097 -9.270238 -6.175495 -17.159604 17.892753 8.819972 3.988527 -7.924972 -3.915964 7.247724 -0.131788 -0.433362 0.257334 0.000000 0.000000 0.000000 -0.843917 -2.926274 0.767364 1.901385 0.861857 0.700917 1.143919 0.674236 0.456228 1.287144 2.236742 0.247725 0.000000 0.000000 0.000000 1.025930 0.631155 0.071568 0.129098 -0.367972 -2.564573 -5.236247 -10.336771 4.104280 0.000000 0.000000 0.000000 0.919902 0.494474 0.402032 0.676253 -0.551049 -10.949301 1.147941 -0.402590 -1.783024 7.909976 -19.071693 -58.084086 2.829390 -23.109679 1.140849 0.000000 0.000000 0.000000 0.627200 0.491822 0.133764 0.611763 4.442193 14.764233 0.036754 1.802225 0.041325 6.850959 3.392242 62.544602 0.273620 29.022413 -0.045569 0.000000 0.000000 0.000000 
-0.212526 33.233688 -0.032196 0.000000 0.000000 0.000000 0.850332 -2.381056 1.208285 -10.643321 8.395155 13.632019 18.988267 -9.514196 -1.291595 -11.445039 1.070643 -8.748458 0.722540 0.254119 -1.062828 0.000000 0.000000 0.000000 1.028149 -2.044543 0.905832 -10.215680 -6.519736 -17.003848 17.312653 8.528042 3.813128 -8.676559 -3.827452 7.146212 0.156355 -0.292221 0.329507 0.000000 0.000000 0.000000 -0.008905 -3.098616 0.636069 1.560184 0.824229 0.702178 1.228278 0.690465 0.587500 1.217352 1.376101 0.227120 0.000000 0.000000 0.000000 0.988371 0.671727 0.176018 0.417161 -0.260566 -2.508880 -5.972056 -9.867697 3.757787 0.000000 0.000000 0.000000 1.008788 0.540682 0.410588 0.679544 -0.278745 -11.078187 1.070384 -0.403115 -1.237843 6.251711 -19.750093 -57.296237 2.741621 -23.775098 1.199821 0.000000 0.000000 0.000000 0.733098 0.563799 0.204891 0.612714 4.766214 14.887123 -0.531099 2.324763 -0.434839 6.912191 4.554771 61.842309 0.296699 30.049540 0.114122 0.000000 0.000000 0.000000 
-0.236630 33.170410 -0.232780 0.000000 0.000000 0.000000 1.942746 -2.686498 1.123812 -12.911521 7.875395 13.693440 21.006032 -9.092509 -0.843804 -11.898826 1.750958 -9.301894 0.828282 0.305776 -0.736541 0.000000 0.000000 0.000000 2.134416 -2.236643 0.828307 -12.124038 -6.761581 -16.935691 17.986571 8.441887 3.695840 -9.749246 -3.681573 7.204000 0.126536 -0.042245 0.309703 0.000000 0.000000 0.000000 1.184977 -3.204303 0.538785 1.311435 0.814913 0.774027 1.321908 0.752630 0.650250 1.027949 0.702298 0.152009 0.000000 0.000000 0.000000 0.992265 0.754542 0.227986 0.530693 -0.171531 -2.353844 -7.159307 -9.194161 3.325761 0.000000 0.000000 0.000000 1.063997 0.623007 0.352558 0.682377 -0.213244 -10.978453 0.924845 -0.151702 -0.680838 3.418121 -19.724403 -56.614857 2.559662 -27.012449 1.280650 0.000000 0.000000 0.000000 0.882652 0.690033 0.239097 0.617614 5.066268 14.857950 -0.799731 2.588013 -1.068487 5.922886 6.327932 60.305434 0.238958 33.522562 0.320505 0.000000 0.000000 0.000000 
-0.266133 32.926968 -0.519905 0.000000 0.000000 0.000000 3.359233 -2.850299 0.996943 -16.432281 7.231683 13.880817 24.259232 -8.743057 -0.420978 -12.819680 2.333202 -10.043505 0.816896 0.346375 -0.332591 0.000000 0.000000 0.000000 3.699440 -2.285734 0.716302 -15.276157 -6.772556 -17.040468 20.464599 8.626697 3.550065 -11.235642 -3.408437 7.388346 -0.342596 0.254852 0.209987 0.000000 0.000000 0.000000 2.760376 -3.206949 0.503895 1.201444 0.836596 0.919904 1.410305 0.879700 0.608591 0.825744 0.088607 0.112969 0.000000 0.000000 0.000000 1.044390 0.902101 0.207609 0.359295 -0.084827 -2.109985 -8.843887 -8.323751 2.805570 0.000000 0.000000 0.000000 1.067066 0.757781 0.231787 0.670603 -0.396589 -10.511510 0.866547 0.188988 -0.207949 -1.221038 -18.955856 -56.289460 2.402733 -32.991562 1.313038 0.000000 0.000000 0.000000 1.041723 0.866757 0.198503 0.631099 5.287171 14.567636 -0.584362 2.950043 -1.646305 3.108618 8.227207 57.795893 0.133665 39.379141 0.566033 0.000000 0.000000 0.000000 
-0.311684 32.484184 -0.858133 0.000000 0.000000 0.000000 5.177382 -2.836101 0.883677 -21.235176 6.345948 14.098917 28.817480 -8.387956 -0.025154 -14.241861 2.843135 -10.755992 0.694856 0.369499 0.040999 0.000000 0.000000 0.000000 5.674504 -2.348760 0.613790 -19.863896 -6.514443 -17.334293 25.041908 8.999095 3.374603 -13.289213 -3.055080 7.470370 -0.833514 0.528825 0.113968 0.000000 0.000000 0.000000 4.750489 -3.119171 0.507976 1.221051 0.889630 1.110442 1.489906 1.055287 0.484400 0.607129 -0.199250 0.142572 0.000000 0.000000 0.000000 1.139241 1.087562 0.114678 -0.129695 -0.023296 -1.815337 -10.958841 -7.287092 2.231507 0.000000 0.000000 0.000000 1.043318 0.946233 0.080434 0.632525 -0.811548 -9.695163 0.803101 0.430030 -0.079401 -7.647809 -17.767856 -56.259575 2.319080 -41.206521 1.286063 0.000000 0.000000 0.000000 1.168878 1.063994 0.100037 0.633306 5.461824 14.062470 -0.036169 3.294742 -1.815400 -2.066153 10.200456 54.420748 0.014474 47.094318 0.849256 0.000000 0.000000 0.000000 
-0.359745 31.844021 -1.244389 0.000000 0.000000 0.000000 7.312850 -2.717243 0.796696 -27.114324 5.204395 14.213716 34.441994 -7.900648 0.325512 -16.076399 3.362131 -11.137568 0.589692 0.357770 0.295393 0.000000 0.000000 0.000000 7.895002 -2.409846 0.551117 -25.857720 -5.981612 -17.824378 31.545184 9.493919 3.151261 -15.865515 -2.629011 7.262682 -1.018835 0.747054 0.093814 0.000000 0.000000 0.000000 7.136140 -2.868512 0.500978 1.311221 0.960012 1.287925 1.579652 1.233223 0.323227 0.602258 -0.227545 0.111867 0.000000 0.000000 0.000000 1.268498 1.258551 -0.013643 -0.885543 0.038935 -1.512620 -13.370444 -6.267691 1.661922 0.000000 0.000000 0.000000 1.033521 1.156853 -0.059046 0.579507 -1.446280 -8.648308 0.580719 0.428993 -0.264603 -15.632669 -16.509677 -56.441026 2.271466 -50.008248 1.177141 0.000000 0.000000 0.000000 1.270443 1.246070 -0.037192 0.616953 5.672117 13.460029 0.610116 3.501799 -1.589004 -9.640470 12.478359 50.563132 -0.097512 55.358191 1.058065 0.000000 0.000000 0.000000 
-0.387858 31.062523 -1.653906 0.000000 0.000000 0.000000 9.632809 -2.526607 0.742291 -33.589798 3.858462 14.246238 40.613633 -7.291021 0.563106 -18.146679 3.874135 -11.094758 0.557272 0.302774 0.443624 0.000000 0.000000 0.000000 10.169281 -2.547883 0.557392 -32.866928 -5.120907 -18.431091 39.243228 10.067736 2.870899 -18.613420 -2.163363 6.914175 -0.970322 0.869512 0.140638 0.000000 0.000000 0.000000 9.776029 -2.554528 0.471331 1.449531 1.046544 1.408449 1.725000 1.390375 0.168094 0.854810 -0.316863 0.138675 0.000000 0.000000 0.000000 1.451207 1.399238 -0.124057 -1.786637 0.118194 -1.247500 -15.814364 -5.324220 1.131598 0.000000 0.000000 0.000000 1.095126 1.353070 -0.153941 0.530575 -2.319131 -7.507579 0.470263 0.403190 -0.478318 -24.676136 -15.387528 -56.664571 2.135235 -57.732051 0.970652 0.000000 0.000000 0.000000 1.380071 1.389238 -0.191893 0.602338 5.978453 12.898863 1.035854 3.729283 -1.217734 -19.143524 15.331577 46.981729 -0.155861 62.890032 1.128269 0.000000 0.000000 0.000000 
